<svg width="72" height="92" viewBox="0 0 72 92" fill="none" xmlns="http://www.w3.org/2000/svg" xmlns:xlink="http://www.w3.org/1999/xlink">
<path d="M36.033,4.495C16.6,-6.725 0.794,2.401 0.794,24.84L2.547,25.853C2.547,4.532 17.569,-4.141 36.033,6.521C54.497,17.183 69.519,43.199 69.519,64.52L71.276,65.533C71.276,43.094 55.466,15.714 36.033,4.495Z" fill="#FFEBCA"/>
<path d="M71.276,65.533C71.276,87.969 55.466,97.101 36.033,85.882C16.6,74.662 0.794,47.275 0.794,24.84L2.547,25.853C2.547,47.174 17.569,73.193 36.033,83.855C54.497,94.518 69.519,85.841 69.519,64.52L71.276,65.533Z" fill="#31A062"/>
<path d="M51.275,43.294C50.968,37.214 46.523,32.581 40.738,28.639L40.984,20.672L36.726,17.97L36.597,25.792C35.449,25.042 34.331,24.495 33.179,23.746L33.463,15.978L29.204,13.276L28.954,21.243C27.995,20.743 26.999,20.044 26.192,19.595L20.315,16.005L20.18,21.199L23.291,23.144C24.905,24.046 25.449,25.532 25.655,26.721L25.455,35.84C25.657,35.888 25.833,36.008 25.952,36.177C25.797,36.127 25.614,35.877 25.455,35.84L25.158,48.657C25.104,49.2 24.655,49.991 23.503,49.244L20.396,47.296L19.383,52.588L24.966,56.097C26.117,56.847 27.08,57.347 28.076,58.042L27.863,66.209L31.221,68.33L31.126,68.205L32.139,68.904L32.386,60.937C33.553,61.553 34.684,62.237 35.773,62.983L35.527,70.951L39.819,73.842L40.032,65.675C47.263,69.522 52.423,70.636 53.204,63.216C53.723,59.632 52.838,55.985 50.735,53.037C50.522,52.743 50.296,52.446 50.059,52.169C49.275,51.239 48.419,50.372 47.499,49.575C47.53,49.575 47.557,49.575 47.587,49.575C47.503,49.491 47.415,49.407 47.31,49.319C49.985,49.44 51.589,47.714 51.275,43.294ZM44.858,57.124L44.811,57.107C44.504,62.923 35.554,56.722 32.653,55.033L32.855,44.243C35.351,45.86 42.268,49.309 44.267,54.165C44.404,54.494 44.517,54.833 44.605,55.178C44.795,55.815 44.884,56.477 44.868,57.141L44.858,57.124ZM43.22,40.679C43.153,46.276 35.53,40.99 33.088,39.443L33.308,29.595C33.946,29.987 34.932,30.551 36.047,31.25C39.215,33.27 43.369,36.454 43.23,40.693L43.22,40.679Z" fill="#FFFFFF"/>
</svg>
