<svg width="150" height="178" viewBox="0 0 150 178" fill="none" xmlns="http://www.w3.org/2000/svg" xmlns:xlink="http://www.w3.org/1999/xlink">
<g opacity="0.2">
<g opacity="0.2">
<path d="M65.618,122.856C65.577,121.548 65.778,120.244 66.209,119.009C66.603,118.007 67.166,117.354 67.897,117.05C68.629,116.746 69.477,116.876 70.441,117.438C71.483,118.069 72.356,118.944 72.984,119.988C73.74,121.193 74.309,122.504 74.672,123.879C75.069,125.357 75.268,126.881 75.263,128.411C75.303,129.716 75.103,131.016 74.672,132.248C74.276,133.259 73.713,133.915 72.984,134.217C72.254,134.519 71.406,134.389 70.441,133.829C69.398,133.198 68.525,132.323 67.897,131.279C67.14,130.07 66.57,128.754 66.209,127.374C65.815,125.901 65.616,124.381 65.618,122.856L65.618,122.856ZM66.702,123.48C66.699,124.763 66.849,126.042 67.148,127.29C67.408,128.437 67.84,129.538 68.428,130.556C68.903,131.414 69.593,132.135 70.43,132.646C71.204,133.092 71.873,133.167 72.43,132.866C72.987,132.565 73.416,131.971 73.713,131.079C74.032,130.012 74.182,128.901 74.156,127.787C74.159,126.5 74.011,125.218 73.713,123.967C73.45,122.824 73.018,121.726 72.43,120.711C71.956,119.853 71.267,119.133 70.43,118.62C69.654,118.175 68.988,118.1 68.428,118.398C67.867,118.695 67.441,119.289 67.148,120.174C66.824,121.245 66.673,122.362 66.702,123.48L66.702,123.48Z" fill="#31A062"/>
</g>
<g opacity="0.2">
<path d="M78.222,137.55C78.21,137.456 78.224,137.361 78.263,137.275C78.302,137.188 78.364,137.114 78.441,137.061C78.523,137.021 78.613,137.004 78.703,137.012C78.793,137.021 78.879,137.054 78.951,137.108C79.169,137.241 79.346,137.43 79.465,137.655C79.602,137.878 79.676,138.133 79.681,138.395C79.694,138.486 79.681,138.58 79.643,138.665C79.605,138.749 79.543,138.821 79.465,138.871C79.382,138.908 79.291,138.922 79.2,138.912C79.11,138.902 79.024,138.868 78.951,138.813C78.739,138.675 78.562,138.489 78.435,138.269C78.308,138.05 78.235,137.804 78.222,137.55Z" fill="#31A062"/>
</g>
<g opacity="0.2">
<path d="M82.376,125.747L82.376,124.561L91.88,130.049L85,142.012L83.855,141.336L90.245,130.272L82.376,125.747Z" fill="#31A062"/>
</g>
<g opacity="0.2">
<path d="M92.65,131.677L92.65,130.492L102.154,135.98L95.271,147.942L94.126,147.284L100.512,136.22L92.65,131.677Z" fill="#31A062"/>
</g>
<g opacity="0.2">
<path d="M102.92,137.621L102.92,136.436L112.424,141.924L105.541,153.887L104.4,153.211L110.786,142.147L102.92,137.621Z" fill="#31A062"/>
</g>
<g opacity="0.2">
<path d="M124.687,156.197C125.289,156.686 125.832,157.244 126.305,157.858C126.786,158.485 127.18,159.173 127.477,159.905C127.772,160.629 127.922,161.403 127.919,162.185C127.919,163.232 127.722,163.984 127.328,164.441C127.128,164.667 126.874,164.839 126.589,164.942C126.305,165.044 125.999,165.072 125.7,165.025C124.86,164.904 124.054,164.607 123.336,164.154L120.141,162.31L120.141,146.358L123.14,148.091C124.311,148.745 125.316,149.66 126.075,150.766C126.786,151.793 127.165,153.013 127.163,154.261C127.163,155.156 126.937,155.754 126.487,156.058C126.038,156.362 125.437,156.406 124.687,156.197ZM121.215,153.647L123.13,154.751C123.945,155.224 124.639,155.401 125.211,155.281C125.783,155.162 126.067,154.641 126.065,153.718C126.06,152.816 125.782,151.936 125.268,151.195C124.718,150.379 123.986,149.703 123.13,149.219L121.215,148.091L121.215,153.647ZM121.215,154.765L121.215,161.82L123.326,163.039C124.378,163.647 125.222,163.835 125.859,163.603C126.497,163.37 126.815,162.664 126.815,161.479C126.815,160.729 126.65,159.989 126.332,159.31C125.687,157.924 124.64,156.764 123.326,155.98L121.215,154.765Z" fill="#31A062"/>
</g>
<g opacity="0.2">
<path d="M128.649,152.461L128.649,151.276L136.991,156.092L136.991,157.277L133.36,155.183L133.36,169.936L132.276,169.311L132.276,154.555L128.649,152.461Z" fill="#31A062"/>
</g>
<g opacity="0.2">
<path d="M138.308,164.822C138.312,166.196 138.566,167.558 139.058,168.841C139.543,170.138 140.226,171.352 141.084,172.438C141.855,173.447 142.812,174.297 143.904,174.944C144.675,175.436 145.549,175.742 146.458,175.839C147.126,175.891 147.792,175.707 148.339,175.319L148.339,177.008C147.744,177.268 147.088,177.351 146.447,177.248C145.545,177.068 144.683,176.724 143.904,176.234C142.916,175.658 142.019,174.937 141.243,174.097C140.415,173.208 139.697,172.224 139.102,171.165C138.491,170.085 138.012,168.937 137.673,167.744C137.337,166.582 137.164,165.38 137.16,164.171C137.131,163.151 137.305,162.136 137.673,161.185C137.95,160.459 138.45,159.839 139.102,159.415C139.746,159.033 140.498,158.872 141.243,158.956C142.188,159.068 143.096,159.386 143.904,159.888C144.832,160.411 145.687,161.054 146.447,161.8C147.165,162.536 147.799,163.349 148.339,164.225L148.339,165.89C147.832,164.917 147.199,164.016 146.458,163.208C145.716,162.4 144.855,161.711 143.904,161.165C142.891,160.57 141.942,160.324 141.094,160.418C140.683,160.459 140.286,160.593 139.935,160.811C139.584,161.029 139.287,161.324 139.068,161.675C138.561,162.411 138.308,163.46 138.308,164.822Z" fill="#31A062"/>
</g>
</g>
<path d="M98.215,83.658C98.215,55.38 78.364,20.995 53.871,6.854C48.9,3.984 44.117,2.167 39.656,1.336L39.139,1.241L38.626,1.157C38.288,1.11 37.95,1.062 37.613,1.022C36.937,0.938 36.273,0.878 35.62,0.839C35.282,0.839 34.968,0.812 34.647,0.806C34.161,0.806 33.681,0.806 33.205,0.806C32.888,0.806 32.577,0.836 32.266,0.856C31.642,0.904 31.03,0.968 30.426,1.055C30.125,1.103 29.828,1.15 29.527,1.204C29.23,1.265 28.94,1.322 28.646,1.39C26.801,1.795 25.017,2.441 23.34,3.312L23.34,3.312L13.478,8.452L14.576,11.647C14,12.582 13.48,13.551 13.019,14.548C12.881,14.852 12.742,15.156 12.61,15.47C10.625,20.134 9.534,25.838 9.534,32.468C9.534,39.098 10.625,46.058 12.61,53.019C12.742,53.482 12.881,53.948 13.019,54.407C13.931,57.423 15.008,60.432 16.234,63.411C16.423,63.871 16.616,64.326 16.812,64.786L17.106,65.461C17.308,65.917 17.511,66.37 17.717,66.812C17.923,67.255 18.132,67.721 18.345,68.163C18.45,68.389 18.558,68.612 18.666,68.839C18.882,69.291 19.102,69.737 19.341,70.19C19.453,70.416 19.564,70.639 19.679,70.865C19.905,71.311 20.135,71.757 20.355,72.196C20.469,72.419 20.584,72.641 20.692,72.871C21.285,73.979 21.892,75.075 22.516,76.161C24.391,79.416 26.436,82.57 28.643,85.61C28.936,86.016 29.227,86.411 29.524,86.813L30.422,87.998C31.026,88.782 31.639,89.556 32.263,90.322C32.574,90.7 32.884,91.078 33.202,91.457C33.679,92.017 34.16,92.573 34.644,93.125C34.964,93.49 35.288,93.853 35.617,94.216C36.272,94.934 36.936,95.64 37.609,96.333C37.945,96.678 38.283,97.021 38.623,97.364L39.136,97.874C39.474,98.211 39.811,98.549 40.149,98.866C44.297,102.858 48.903,106.344 53.871,109.252C61.359,113.575 68.394,115.503 74.594,115.29L74.594,117.925L84.436,112.795C92.923,108.374 98.215,98.259 98.215,83.658Z" fill="#35B76E"/>
<path d="M44.035,125.9C64.03,125.9 80.24,97.824 80.24,63.19C80.24,28.556 64.03,0.48 44.035,0.48C24.039,0.48 7.83,28.556 7.83,63.19C7.83,97.824 24.039,125.9 44.035,125.9Z" transform="rotate(-60 44.035 63.19)" fill="#3ADA81"/>
<path d="M44.033,11.985C19.544,-2.156 -0.308,9.31 -0.308,37.588C-0.308,65.866 19.544,100.251 44.033,114.389C68.522,128.526 88.378,117.067 88.378,88.788C88.378,60.51 68.526,26.125 44.033,11.985ZM44.033,107.631C22.776,95.361 5.532,65.512 5.532,40.965C5.532,16.419 22.756,6.469 44.033,18.743C65.311,31.016 82.535,60.865 82.535,85.411C82.535,109.957 65.29,119.904 44.033,107.631Z" fill="#6AE09B"/>
</svg>
