<svg width="148" height="178" viewBox="0 0 148 178" fill="none" xmlns="http://www.w3.org/2000/svg" xmlns:xlink="http://www.w3.org/1999/xlink">
<path d="M97.527,134.479C97.527,106.2 77.675,71.816 53.182,57.675C48.211,54.804 43.429,52.987 38.964,52.156L38.451,52.062L37.941,51.977C37.603,51.93 37.265,51.883 36.927,51.842C36.252,51.758 35.576,51.697 34.935,51.66C34.597,51.643 34.283,51.633 33.962,51.626C33.476,51.626 32.996,51.626 32.52,51.626C32.202,51.626 31.888,51.656 31.581,51.677C30.956,51.724 30.342,51.788 29.74,51.876C29.44,51.923 29.143,51.97 28.842,52.024C28.548,52.085 28.254,52.143 27.964,52.21C26.119,52.615 24.335,53.261 22.658,54.132L22.658,54.132L12.796,59.272L13.891,62.467C13.317,63.403 12.798,64.372 12.337,65.368C12.198,65.672 12.06,65.976 11.928,66.29C9.942,70.954 8.852,76.659 8.852,83.288C8.852,89.918 9.942,96.879 11.928,103.84C12.06,104.302 12.198,104.768 12.337,105.228C13.249,108.244 14.323,111.253 15.552,114.232C15.741,114.691 15.934,115.147 16.13,115.606C16.224,115.832 16.326,116.059 16.424,116.282L17.031,117.633C17.241,118.089 17.447,118.541 17.663,118.984C17.768,119.21 17.876,119.433 17.984,119.659C18.2,120.112 18.42,120.557 18.642,121.01C18.754,121.236 18.862,121.459 18.98,121.685C19.21,122.131 19.436,122.577 19.656,123.016C19.77,123.239 19.885,123.462 19.993,123.692C20.586,124.799 21.193,125.896 21.817,126.981C23.691,130.233 25.735,133.384 27.94,136.421C28.231,136.826 28.525,137.221 28.818,137.62C29.119,138.018 29.416,138.41 29.717,138.802C30.318,139.585 30.931,140.359 31.557,141.122C31.865,141.5 32.179,141.875 32.496,142.253C32.974,142.816 33.454,143.373 33.938,143.925C34.258,144.29 34.582,144.652 34.911,145.013C35.566,145.731 36.231,146.438 36.904,147.134C37.241,147.471 37.579,147.809 37.917,148.147L38.434,148.657C38.771,148.994 39.109,149.332 39.447,149.653C43.597,153.661 48.208,157.163 53.182,160.086C60.67,164.405 67.705,166.334 73.906,166.121L73.906,168.755L83.744,163.625C92.235,159.197 97.527,149.079 97.527,134.479Z" fill="#35B76E"/>
<path d="M43.345,176.72C63.34,176.72 79.55,148.644 79.55,114.01C79.55,79.376 63.34,51.3 43.345,51.3C23.35,51.3 7.14,79.376 7.14,114.01C7.14,148.644 23.35,176.72 43.345,176.72Z" transform="rotate(-60 43.345 114.01)" fill="#3ADA81"/>
<path d="M43.344,62.818C18.852,48.678 -0.997,60.144 -0.997,88.422C-0.997,116.7 18.852,151.072 43.344,165.209C67.837,179.347 87.685,167.887 87.685,139.609C87.685,111.33 67.837,76.946 43.344,62.818ZM43.344,158.465C22.087,146.195 4.843,116.346 4.843,91.799C4.843,67.253 22.067,57.303 43.344,69.576C64.621,81.85 81.846,111.699 81.846,136.245C81.846,160.792 64.601,170.724 43.344,158.451L43.344,158.465Z" fill="#6AE09B"/>
<path d="M43.344,73.315C23.911,62.096 8.102,71.221 8.102,93.66L9.858,94.673C9.858,73.352 24.881,64.679 43.344,75.342C61.808,86.004 76.831,112.019 76.831,133.34L78.587,134.354C78.587,111.915 62.778,84.535 43.344,73.315Z" fill="#FFEBCA"/>
<path d="M78.587,134.354C78.587,156.789 62.778,165.922 43.344,154.702C23.911,143.483 8.102,116.096 8.102,93.66L9.858,94.673C9.858,115.994 24.881,142.013 43.344,152.676C61.808,163.338 76.831,154.662 76.831,133.34L78.587,134.354Z" fill="#31A062"/>
<g opacity="0.2">
<g opacity="0.2">
<path d="M65.128,6.231C65.088,4.924 65.288,3.62 65.719,2.384C66.113,1.382 66.676,0.729 67.408,0.426C68.14,0.122 68.987,0.25 69.951,0.811C70.992,1.447 71.861,2.328 72.484,3.377C73.24,4.582 73.809,5.893 74.173,7.268C74.565,8.742 74.761,10.262 74.754,11.787C74.794,13.091 74.593,14.392 74.163,15.624C73.769,16.634 73.206,17.291 72.474,17.593C71.751,17.896 70.903,17.765 69.931,17.204C68.888,16.574 68.015,15.699 67.388,14.654C66.63,13.446 66.061,12.13 65.699,10.75C65.312,9.275 65.12,7.756 65.128,6.231L65.128,6.231ZM66.212,6.856C66.206,8.139 66.353,9.417 66.648,10.666C66.909,11.812 67.341,12.913 67.928,13.931C68.403,14.79 69.094,15.51 69.931,16.022C70.708,16.472 71.374,16.546 71.93,16.242C72.491,15.944 72.916,15.347 73.214,14.455C73.538,13.382 73.691,12.265 73.666,11.145C73.67,9.86 73.521,8.579 73.224,7.329C72.961,6.186 72.528,5.088 71.94,4.073C71.467,3.214 70.778,2.494 69.941,1.982C69.164,1.533 68.499,1.462 67.938,1.76C67.378,2.057 66.952,2.665 66.648,3.55C66.328,4.621 66.181,5.738 66.212,6.856L66.212,6.856Z" fill="#31A062"/>
</g>
<g opacity="0.2">
<path d="M77.726,20.939C77.714,20.846 77.728,20.75 77.767,20.664C77.806,20.577 77.867,20.503 77.945,20.45C78.027,20.41 78.118,20.393 78.209,20.402C78.299,20.41 78.386,20.443 78.459,20.497C78.675,20.63 78.851,20.819 78.969,21.044C79.106,21.267 79.182,21.522 79.188,21.784C79.201,21.876 79.188,21.97 79.149,22.054C79.11,22.139 79.047,22.21 78.969,22.26C78.886,22.293 78.797,22.304 78.709,22.292C78.621,22.279 78.538,22.244 78.469,22.189C78.255,22.054 78.076,21.871 77.947,21.653C77.818,21.436 77.742,21.192 77.726,20.939Z" fill="#31A062"/>
</g>
<g opacity="0.2">
<path d="M81.887,9.119L81.887,7.937L91.39,13.425L84.511,25.387L83.366,24.712L89.756,13.648L81.887,9.119Z" fill="#31A062"/>
</g>
<g opacity="0.2">
<path d="M92.16,15.053L92.16,13.867L101.664,19.356L94.781,31.318L93.636,30.643L100.026,19.589L92.16,15.053Z" fill="#31A062"/>
</g>
<g opacity="0.2">
<path d="M102.448,20.983L102.448,19.798L111.952,25.286L105.072,37.249L103.927,36.573L110.314,25.509L102.448,20.983Z" fill="#31A062"/>
</g>
<g opacity="0.2">
<path d="M124.198,39.559C124.799,40.048 125.342,40.606 125.816,41.22C126.295,41.84 126.69,42.522 126.987,43.247C127.282,43.972 127.432,44.747 127.43,45.53C127.43,46.577 127.233,47.329 126.839,47.786C126.639,48.011 126.385,48.183 126.101,48.285C125.817,48.387 125.512,48.416 125.214,48.37C124.374,48.25 123.568,47.953 122.85,47.499L119.655,45.655L119.655,29.721L122.654,31.453C123.825,32.108 124.831,33.024 125.593,34.128C126.302,35.155 126.68,36.375 126.677,37.623C126.677,38.524 126.452,39.123 126.001,39.42C125.551,39.717 124.95,39.764 124.198,39.559ZM120.726,37.009L122.641,38.113C123.455,38.583 124.147,38.762 124.721,38.643C125.295,38.525 125.579,38.005 125.579,37.08C125.573,36.177 125.294,35.298 124.779,34.557C124.23,33.741 123.498,33.064 122.641,32.581L120.726,31.477L120.726,37.009ZM120.726,38.127L120.726,45.182L122.837,46.401C123.887,47.009 124.731,47.195 125.37,46.965C126.008,46.736 126.326,46.026 126.326,44.841C126.325,44.091 126.16,43.351 125.843,42.673C125.2,41.284 124.152,40.123 122.837,39.343L120.726,38.127Z" fill="#31A062"/>
</g>
<g opacity="0.2">
<path d="M128.159,35.837L128.159,34.651L136.501,39.467L136.501,40.653L132.871,38.559L132.871,53.311L131.787,52.686L131.787,37.931L128.159,35.837Z" fill="#31A062"/>
</g>
<g opacity="0.2">
<path d="M137.822,48.198C137.825,49.572 138.078,50.934 138.568,52.217C139.055,53.513 139.738,54.726 140.595,55.814C141.365,56.822 142.323,57.673 143.415,58.32C144.184,58.812 145.059,59.118 145.968,59.211C146.636,59.264 147.302,59.081 147.849,58.695L147.849,60.383C147.255,60.643 146.598,60.726 145.958,60.623C145.056,60.443 144.194,60.099 143.415,59.61C142.426,59.033 141.53,58.313 140.753,57.472C139.926,56.583 139.207,55.599 138.612,54.541C138.002,53.461 137.523,52.312 137.184,51.119C136.847,49.957 136.674,48.753 136.67,47.543C136.641,46.524 136.816,45.511 137.184,44.561C137.461,43.834 137.961,43.215 138.612,42.791C139.256,42.407 140.009,42.246 140.753,42.331C141.698,42.443 142.607,42.762 143.415,43.264C144.343,43.786 145.198,44.428 145.958,45.175C146.675,45.912 147.31,46.725 147.849,47.6L147.849,49.262C147.342,48.29 146.71,47.39 145.968,46.584C145.225,45.782 144.364,45.098 143.415,44.557C142.401,43.963 141.452,43.716 140.605,43.811C140.193,43.851 139.797,43.986 139.445,44.203C139.094,44.421 138.797,44.717 138.578,45.067C138.068,45.776 137.822,46.833 137.822,48.198Z" fill="#31A062"/>
</g>
</g>
</svg>
