<svg width="52" height="38" viewBox="0 0 52 38" fill="none" xmlns="http://www.w3.org/2000/svg" xmlns:xlink="http://www.w3.org/1999/xlink">
<g opacity="0.2">
<g opacity="0.2">
<path d="M0.396,3.259C0.368,2.481 0.482,1.703 0.734,0.966C0.814,0.712 0.946,0.478 1.12,0.277C1.294,0.076 1.508,-0.087 1.747,-0.203C2.179,-0.385 2.685,-0.308 3.263,0.027C3.885,0.403 4.406,0.924 4.78,1.547C5.234,2.265 5.575,3.049 5.793,3.87C6.031,4.751 6.15,5.66 6.148,6.572C6.171,7.35 6.051,8.125 5.793,8.859C5.715,9.114 5.584,9.349 5.41,9.551C5.235,9.753 5.021,9.916 4.78,10.031C4.352,10.213 3.847,10.137 3.263,9.801C2.643,9.424 2.122,8.903 1.747,8.281C1.295,7.561 0.953,6.776 0.734,5.954C0.504,5.074 0.391,4.168 0.396,3.259L0.396,3.259ZM1.041,3.631C1.041,4.396 1.13,5.159 1.308,5.904C1.463,6.587 1.72,7.243 2.071,7.849C2.354,8.361 2.765,8.79 3.263,9.095C3.433,9.221 3.633,9.3 3.843,9.323C4.054,9.346 4.266,9.313 4.459,9.227C4.84,8.983 5.113,8.602 5.222,8.163C5.413,7.526 5.501,6.862 5.486,6.197C5.488,5.431 5.4,4.667 5.222,3.921C5.065,3.24 4.808,2.585 4.459,1.979C4.175,1.467 3.763,1.038 3.263,0.733C3.094,0.607 2.895,0.528 2.685,0.505C2.476,0.482 2.264,0.515 2.071,0.601C1.69,0.843 1.417,1.223 1.308,1.662C1.115,2.3 1.025,2.964 1.041,3.631L1.041,3.631Z" fill="#31A062"/>
</g>
<g opacity="0.2">
<path d="M7.907,12.02C7.9,11.964 7.908,11.908 7.931,11.857C7.953,11.805 7.99,11.761 8.036,11.729C8.084,11.705 8.139,11.695 8.193,11.699C8.247,11.704 8.299,11.724 8.343,11.756C8.474,11.839 8.579,11.956 8.647,12.094C8.73,12.227 8.776,12.38 8.779,12.537C8.787,12.592 8.778,12.648 8.755,12.698C8.732,12.748 8.694,12.791 8.647,12.82C8.598,12.842 8.544,12.851 8.49,12.845C8.437,12.839 8.386,12.819 8.343,12.787C8.215,12.705 8.109,12.595 8.033,12.464C7.957,12.332 7.914,12.185 7.907,12.033L7.907,12.02Z" fill="#31A062"/>
</g>
<g opacity="0.2">
<path d="M10.268,11.811L14.807,6.829L15.054,6.971L15.054,13.908L16.347,14.654L16.347,15.33L15.054,14.583L15.054,16.481L14.409,16.11L14.409,14.208L10.268,11.811ZM14.409,13.533L14.409,8.322L11.352,11.77L14.409,13.533Z" fill="#31A062"/>
</g>
<g opacity="0.2">
<path d="M16.982,15.684L21.518,10.703L21.765,10.845L21.765,17.782L23.058,18.528L23.058,19.203L21.765,18.457L21.765,20.359L21.119,19.984L21.119,18.082L16.982,15.684ZM21.119,17.407L21.119,12.196L18.08,15.644L21.119,17.407Z" fill="#31A062"/>
</g>
<g opacity="0.2">
<path d="M23.693,19.558L28.229,14.577L28.475,14.722L28.475,21.655L29.769,22.402L29.769,23.077L28.475,22.331L28.475,24.232L27.83,23.857L27.83,21.959L23.693,19.558ZM27.83,21.284L27.83,16.069L24.791,19.518L27.83,21.284Z" fill="#31A062"/>
</g>
<g opacity="0.2">
<path d="M37.375,24.148C37.734,24.438 38.057,24.771 38.337,25.137C38.626,25.509 38.861,25.92 39.036,26.357C39.213,26.785 39.303,27.244 39.303,27.708C39.354,28.184 39.234,28.662 38.965,29.059C38.845,29.192 38.693,29.293 38.524,29.352C38.354,29.411 38.173,29.426 37.996,29.396C37.493,29.326 37.01,29.149 36.581,28.876L34.676,27.779L34.676,18.288L36.463,19.322C37.161,19.712 37.761,20.257 38.215,20.916C38.637,21.529 38.862,22.256 38.861,23C38.861,23.533 38.729,23.891 38.462,24.07C38.299,24.165 38.116,24.222 37.927,24.235C37.739,24.249 37.55,24.219 37.375,24.148ZM35.304,22.625L36.446,23.283C36.807,23.536 37.247,23.648 37.685,23.601C38.023,23.53 38.199,23.219 38.199,22.665C38.194,22.128 38.028,21.604 37.722,21.162C37.394,20.676 36.957,20.274 36.446,19.987L35.304,19.328L35.304,22.625ZM35.304,23.3L35.304,27.485L36.564,28.211C37.189,28.572 37.692,28.687 38.074,28.549C38.455,28.41 38.644,27.988 38.644,27.282C38.642,26.835 38.545,26.394 38.357,25.989C38.164,25.569 37.905,25.183 37.591,24.844C37.298,24.513 36.956,24.23 36.578,24.003L35.304,23.3Z" fill="#31A062"/>
</g>
<g opacity="0.2">
<path d="M39.735,21.926L39.735,21.22L44.71,24.091L44.71,24.783L42.545,23.537L42.545,32.318L41.9,31.943L41.9,23.162L39.735,21.926Z" fill="#31A062"/>
</g>
<g opacity="0.2">
<path d="M45.497,29.298C45.5,30.117 45.651,30.928 45.943,31.693C46.229,32.465 46.634,33.189 47.142,33.837C47.603,34.44 48.176,34.947 48.831,35.33C49.289,35.624 49.809,35.807 50.35,35.864C50.75,35.894 51.147,35.784 51.475,35.553L51.475,36.566C51.12,36.72 50.729,36.77 50.347,36.708C49.808,36.599 49.294,36.392 48.831,36.097C48.241,35.753 47.706,35.322 47.243,34.82C46.75,34.291 46.321,33.705 45.967,33.074C45.603,32.435 45.318,31.755 45.115,31.048C44.915,30.355 44.812,29.638 44.808,28.917C44.792,28.309 44.896,27.704 45.115,27.137C45.28,26.704 45.578,26.335 45.967,26.083C46.351,25.856 46.799,25.76 47.243,25.81C47.806,25.877 48.348,26.066 48.831,26.363C49.383,26.677 49.893,27.06 50.347,27.505C50.774,27.944 51.153,28.429 51.475,28.95L51.475,29.94C51.171,29.361 50.793,28.824 50.35,28.343C49.908,27.862 49.396,27.451 48.831,27.123C48.33,26.798 47.738,26.642 47.142,26.681C46.897,26.706 46.661,26.787 46.452,26.916C46.243,27.046 46.067,27.222 45.936,27.431C45.612,27.998 45.46,28.646 45.497,29.298L45.497,29.298Z" fill="#31A062"/>
</g>
</g>
</svg>
