<svg width="52" height="38" viewBox="0 0 52 38" fill="none" xmlns="http://www.w3.org/2000/svg" xmlns:xlink="http://www.w3.org/1999/xlink">
<g opacity="0.2">
<g opacity="0.2">
<path d="M-0.213,4.313C-0.243,3.533 -0.128,2.755 0.125,2.016C0.205,1.763 0.336,1.529 0.51,1.329C0.685,1.128 0.898,0.966 1.138,0.851C1.566,0.669 2.071,0.745 2.654,1.081C3.276,1.457 3.797,1.978 4.171,2.601C4.624,3.318 4.966,4.101 5.184,4.921C5.415,5.803 5.528,6.711 5.522,7.623C5.549,8.4 5.435,9.176 5.184,9.913C5.105,10.167 4.974,10.403 4.8,10.604C4.625,10.806 4.411,10.97 4.171,11.085C3.739,11.267 3.235,11.189 2.654,10.855C2.032,10.48 1.511,9.958 1.138,9.335C0.684,8.614 0.342,7.829 0.125,7.005C-0.107,6.126 -0.22,5.221 -0.213,4.313ZM0.432,4.684C0.43,5.449 0.519,6.211 0.696,6.954C0.853,7.638 1.111,8.295 1.462,8.903C1.744,9.415 2.155,9.845 2.654,10.149C2.824,10.275 3.023,10.354 3.233,10.377C3.442,10.4 3.654,10.367 3.847,10.281C4.229,10.038 4.502,9.657 4.61,9.217C4.803,8.58 4.893,7.916 4.877,7.251C4.88,6.485 4.79,5.72 4.61,4.975C4.455,4.293 4.197,3.638 3.847,3.033C3.565,2.52 3.154,2.091 2.654,1.787C2.485,1.661 2.286,1.582 2.076,1.559C1.867,1.536 1.655,1.569 1.462,1.655C1.081,1.897 0.807,2.275 0.696,2.712C0.504,3.352 0.415,4.017 0.432,4.684L0.432,4.684Z" fill="#31A062"/>
</g>
<g opacity="0.2">
<path d="M7.295,13.074C7.288,13.017 7.297,12.96 7.32,12.908C7.343,12.857 7.38,12.812 7.427,12.78C7.475,12.757 7.529,12.747 7.582,12.751C7.636,12.756 7.687,12.775 7.731,12.807C7.86,12.891 7.966,13.008 8.038,13.145C8.118,13.277 8.162,13.429 8.166,13.584C8.174,13.639 8.166,13.695 8.143,13.746C8.121,13.796 8.084,13.84 8.038,13.871C7.988,13.892 7.934,13.9 7.88,13.894C7.826,13.889 7.775,13.869 7.731,13.837C7.6,13.754 7.495,13.637 7.427,13.499C7.344,13.372 7.299,13.225 7.295,13.074L7.295,13.074Z" fill="#31A062"/>
</g>
<g opacity="0.2">
<path d="M9.659,12.861L14.195,7.886L14.445,8.031L14.445,14.965L15.735,15.711L15.735,16.387L14.445,15.64L14.445,17.542L13.796,17.167L13.796,15.269L9.659,12.861ZM13.796,14.587L13.796,9.372L10.757,12.82L13.796,14.587Z" fill="#31A062"/>
</g>
<g opacity="0.2">
<path d="M16.37,16.738L20.909,11.757L21.156,11.898L21.156,18.835L22.449,19.582L22.449,20.257L21.156,19.511L21.156,21.396L20.507,21.024L20.507,19.123L16.37,16.738ZM20.507,18.461L20.507,13.249L17.451,16.698L20.507,18.461Z" fill="#31A062"/>
</g>
<g opacity="0.2">
<path d="M23.081,20.612L27.627,15.63L27.873,15.772L27.873,22.709L29.167,23.456L29.167,24.131L27.873,23.385L27.873,25.286L27.225,24.911L27.225,23.01L23.081,20.612ZM27.218,22.334L27.218,17.123L24.178,20.571L27.218,22.334Z" fill="#31A062"/>
</g>
<g opacity="0.2">
<path d="M36.762,25.198C37.122,25.49 37.447,25.823 37.728,26.191C38.016,26.562 38.252,26.971 38.427,27.407C38.6,27.837 38.69,28.295 38.691,28.758C38.739,29.234 38.619,29.712 38.353,30.109C38.232,30.242 38.081,30.342 37.911,30.401C37.742,30.46 37.561,30.476 37.384,30.447C36.88,30.374 36.396,30.197 35.965,29.927L34.06,28.826L34.06,19.342L35.847,20.372C36.546,20.763 37.146,21.31 37.6,21.97C38.024,22.582 38.25,23.309 38.248,24.053C38.248,24.587 38.113,24.942 37.846,25.124C37.683,25.219 37.501,25.275 37.313,25.288C37.125,25.301 36.936,25.27 36.762,25.198ZM34.695,23.679L35.833,24.354C36.197,24.605 36.637,24.718 37.076,24.672C37.414,24.601 37.586,24.29 37.586,23.736C37.582,23.199 37.416,22.675 37.11,22.233C36.782,21.746 36.345,21.342 35.833,21.054L34.695,20.399L34.695,23.679ZM34.695,24.354L34.695,28.562L35.952,29.288C36.58,29.649 37.084,29.761 37.465,29.626C37.843,29.491 38.032,29.069 38.032,28.363C38.033,27.916 37.935,27.474 37.745,27.069C37.552,26.649 37.294,26.262 36.982,25.921C36.688,25.593 36.346,25.31 35.969,25.084L34.695,24.354Z" fill="#31A062"/>
</g>
<g opacity="0.2">
<path d="M39.126,22.979L39.126,22.274L44.098,25.144L44.098,25.85L41.936,24.601L41.936,33.382L41.288,33.007L41.288,24.226L39.126,22.979Z" fill="#31A062"/>
</g>
<g opacity="0.2">
<path d="M44.885,30.349C44.887,31.169 45.038,31.981 45.33,32.747C45.621,33.523 46.029,34.251 46.54,34.905C47.002,35.506 47.575,36.012 48.228,36.398C48.687,36.692 49.209,36.874 49.751,36.931C50.15,36.961 50.546,36.851 50.873,36.62L50.873,37.634C50.518,37.79 50.127,37.84 49.745,37.779C49.207,37.667 48.693,37.46 48.228,37.168C47.639,36.822 47.104,36.392 46.641,35.891C46.149,35.361 45.722,34.775 45.368,34.145C45.005,33.505 44.718,32.825 44.513,32.119C44.314,31.426 44.211,30.708 44.209,29.987C44.192,29.38 44.295,28.775 44.513,28.208C44.68,27.775 44.979,27.406 45.368,27.154C45.75,26.924 46.198,26.827 46.641,26.877C47.205,26.944 47.747,27.134 48.228,27.434C48.783,27.745 49.293,28.129 49.745,28.576C50.174,29.014 50.552,29.499 50.873,30.021L50.873,31.011C50.571,30.431 50.194,29.894 49.751,29.413C49.313,28.915 48.799,28.489 48.228,28.15C47.728,27.824 47.135,27.669 46.54,27.708C46.295,27.732 46.059,27.813 45.85,27.943C45.641,28.073 45.464,28.249 45.334,28.458C45.002,29.03 44.846,29.688 44.885,30.349L44.885,30.349Z" fill="#31A062"/>
</g>
</g>
</svg>
