<svg width="52" height="38" viewBox="0 0 52 38" fill="none" xmlns="http://www.w3.org/2000/svg" xmlns:xlink="http://www.w3.org/1999/xlink">
<g opacity="0.2">
<g opacity="0.2">
<path d="M0.084,3.221C0.054,2.442 0.169,1.663 0.422,0.925C0.502,0.672 0.633,0.437 0.807,0.237C0.982,0.037 1.195,-0.126 1.435,-0.24C1.863,-0.423 2.368,-0.346 2.951,-0.011C3.573,0.365 4.094,0.887 4.468,1.509C4.922,2.228 5.263,3.011 5.481,3.833C5.712,4.715 5.826,5.623 5.819,6.535C5.846,7.312 5.732,8.088 5.481,8.824C5.402,9.079 5.271,9.314 5.097,9.516C4.923,9.718 4.708,9.881 4.468,9.996C4.036,10.179 3.532,10.101 2.951,9.767C2.329,9.392 1.808,8.87 1.435,8.247C0.981,7.526 0.639,6.74 0.422,5.916C0.19,5.037 0.076,4.131 0.084,3.221L0.084,3.221ZM0.729,3.593C0.727,4.357 0.816,5.119 0.993,5.862C1.15,6.547 1.408,7.203 1.759,7.811C2.041,8.324 2.452,8.753 2.951,9.057C3.121,9.183 3.32,9.262 3.53,9.285C3.739,9.308 3.951,9.275 4.144,9.189C4.526,8.946 4.799,8.565 4.907,8.125C5.1,7.488 5.19,6.825 5.174,6.16C5.177,5.393 5.087,4.629 4.907,3.883C4.752,3.201 4.494,2.547 4.144,1.941C3.862,1.429 3.451,0.999 2.951,0.695C2.782,0.569 2.583,0.491 2.373,0.467C2.164,0.444 1.952,0.477 1.759,0.563C1.378,0.805 1.104,1.183 0.993,1.621C0.802,2.26 0.715,2.926 0.733,3.593L0.729,3.593Z" fill="#31A062"/>
</g>
<g opacity="0.2">
<path d="M7.592,11.982C7.585,11.926 7.594,11.869 7.617,11.817C7.64,11.765 7.677,11.721 7.724,11.688C7.772,11.665 7.826,11.655 7.879,11.66C7.933,11.665 7.984,11.684 8.028,11.715C8.156,11.8 8.262,11.914 8.338,12.048C8.413,12.182 8.456,12.332 8.463,12.485C8.471,12.54 8.462,12.595 8.44,12.646C8.417,12.696 8.381,12.739 8.335,12.769C8.285,12.79 8.231,12.799 8.177,12.793C8.123,12.787 8.072,12.767 8.028,12.735C7.901,12.656 7.796,12.546 7.724,12.414C7.64,12.286 7.594,12.136 7.592,11.982L7.592,11.982Z" fill="#31A062"/>
</g>
<g opacity="0.2">
<path d="M9.956,11.769L14.495,6.788L14.742,6.933L14.742,13.867L16.032,14.613L16.032,15.289L14.742,14.542L14.742,16.444L14.093,16.072L14.093,14.154L9.956,11.769ZM14.093,13.495L14.093,8.281L11.054,11.729L14.093,13.495Z" fill="#31A062"/>
</g>
<g opacity="0.2">
<path d="M16.667,15.647L21.206,10.665L21.453,10.807L21.453,17.744L22.746,18.49L22.746,19.166L21.453,18.419L21.453,20.317L20.804,19.946L20.804,18.044L16.667,15.647ZM20.804,17.369L20.804,12.158L17.764,15.606L20.804,17.369Z" fill="#31A062"/>
</g>
<g opacity="0.2">
<path d="M23.378,19.52L27.917,14.539L28.163,14.681L28.163,21.618L29.457,22.364L29.457,23.04L28.163,22.293L28.163,24.195L27.515,23.82L27.515,21.922L23.378,19.52ZM27.515,21.246L27.515,16.032L24.475,19.48L27.515,21.246Z" fill="#31A062"/>
</g>
<g opacity="0.2">
<path d="M37.059,24.107C37.418,24.399 37.743,24.733 38.025,25.1C38.313,25.471 38.549,25.88 38.724,26.316C38.897,26.745 38.987,27.204 38.988,27.667C39.038,28.143 38.918,28.621 38.65,29.017C38.529,29.15 38.378,29.251 38.208,29.31C38.039,29.369 37.857,29.385 37.681,29.355C37.177,29.283 36.693,29.106 36.262,28.835L34.357,27.734L34.357,18.251L36.144,19.284C36.844,19.672 37.444,20.218 37.897,20.878C38.321,21.49 38.547,22.217 38.545,22.962C38.545,23.496 38.41,23.854 38.143,24.033C37.98,24.127 37.798,24.183 37.61,24.196C37.422,24.209 37.233,24.179 37.059,24.107L37.059,24.107ZM34.992,22.587L36.13,23.246C36.493,23.497 36.934,23.609 37.373,23.563C37.711,23.492 37.883,23.181 37.883,22.628C37.879,22.09 37.713,21.566 37.407,21.125C37.079,20.638 36.642,20.234 36.13,19.946L34.992,19.291L34.992,22.587ZM34.992,23.263L34.992,27.461L36.249,28.187C36.877,28.547 37.381,28.659 37.762,28.524C38.142,28.389 38.331,27.967 38.329,27.258C38.33,26.811 38.232,26.369 38.042,25.964C37.849,25.544 37.591,25.157 37.279,24.816C36.98,24.486 36.632,24.204 36.249,23.979L34.992,23.263Z" fill="#31A062"/>
</g>
<g opacity="0.2">
<path d="M39.423,21.888L39.423,21.182L44.395,24.053L44.395,24.759L42.233,23.509L42.233,32.307L41.598,31.932L41.598,23.151L39.423,21.888Z" fill="#31A062"/>
</g>
<g opacity="0.2">
<path d="M45.182,29.257C45.184,30.077 45.335,30.889 45.627,31.655C45.916,32.427 46.322,33.15 46.83,33.8C47.291,34.401 47.865,34.908 48.518,35.293C48.978,35.587 49.499,35.769 50.042,35.826C50.44,35.856 50.837,35.746 51.163,35.515L51.163,36.529C50.808,36.683 50.417,36.732 50.035,36.671C49.497,36.559 48.983,36.352 48.518,36.059C47.929,35.714 47.395,35.284 46.931,34.783C46.439,34.253 46.011,33.667 45.658,33.036C45.295,32.396 45.009,31.716 44.803,31.01C44.604,30.317 44.502,29.6 44.499,28.879C44.482,28.271 44.585,27.666 44.803,27.099C44.97,26.667 45.269,26.298 45.658,26.045C46.04,25.815 46.488,25.718 46.931,25.768C47.495,25.835 48.037,26.025 48.518,26.326C49.073,26.636 49.583,27.02 50.035,27.467C50.464,27.905 50.842,28.39 51.163,28.913L51.163,29.902C50.861,29.323 50.484,28.786 50.042,28.305C49.6,27.822 49.086,27.411 48.518,27.086C48.018,26.76 47.426,26.605 46.83,26.643C46.585,26.668 46.349,26.748 46.14,26.878C45.931,27.008 45.754,27.184 45.624,27.393C45.3,27.959 45.146,28.606 45.182,29.257Z" fill="#31A062"/>
</g>
</g>
</svg>
