<svg width="88" height="62" viewBox="0 0 88 62" fill="none" xmlns="http://www.w3.org/2000/svg" xmlns:xlink="http://www.w3.org/1999/xlink">
<g opacity="0.2">
<g opacity="0.2">
<path d="M0.807,5.099C0.765,3.79 0.965,2.485 1.398,1.249C1.794,0.249 2.357,-0.403 3.086,-0.707C3.816,-1.011 4.664,-0.882 5.63,-0.322C6.672,0.309 7.546,1.184 8.176,2.228C8.932,3.434 9.501,4.746 9.865,6.122C10.262,7.6 10.461,9.124 10.456,10.655C10.496,11.959 10.295,13.259 9.865,14.491C9.47,15.504 8.912,16.156 8.176,16.46C7.44,16.764 6.602,16.632 5.63,16.072C4.587,15.441 3.714,14.566 3.086,13.522C2.329,12.314 1.759,10.997 1.398,9.618C1.002,8.144 0.803,6.625 0.807,5.099L0.807,5.099ZM1.891,5.724C1.889,7.006 2.037,8.285 2.333,9.533C2.596,10.68 3.028,11.781 3.617,12.799C4.091,13.657 4.78,14.378 5.616,14.89C6.393,15.34 7.06,15.413 7.619,15.109C8.176,14.812 8.605,14.214 8.902,13.323C9.222,12.254 9.371,11.142 9.345,10.026C9.348,8.74 9.2,7.458 8.902,6.207C8.637,5.064 8.205,3.967 7.619,2.951C7.144,2.093 6.454,1.373 5.616,0.864C4.843,0.414 4.174,0.34 3.617,0.641C3.059,0.941 2.631,1.532 2.333,2.417C2.012,3.489 1.863,4.605 1.891,5.724L1.891,5.724Z" fill="#31A062"/>
</g>
<g opacity="0.2">
<path d="M13.404,19.794C13.393,19.7 13.407,19.605 13.445,19.519C13.483,19.433 13.544,19.358 13.62,19.304C13.702,19.263 13.793,19.246 13.884,19.254C13.975,19.263 14.061,19.296 14.134,19.351C14.351,19.483 14.528,19.671 14.647,19.895C14.783,20.118 14.858,20.373 14.863,20.635C14.877,20.727 14.863,20.821 14.825,20.906C14.787,20.991 14.725,21.063 14.647,21.114C14.564,21.15 14.473,21.164 14.383,21.154C14.293,21.144 14.207,21.11 14.134,21.057C13.92,20.925 13.743,20.742 13.62,20.523C13.484,20.304 13.41,20.052 13.404,19.794Z" fill="#31A062"/>
</g>
<g opacity="0.2">
<path d="M22.476,25.805C21.604,25.304 20.826,24.655 20.176,23.887C19.546,23.149 19.041,22.314 18.68,21.415C18.345,20.608 18.167,19.745 18.156,18.872L19.261,19.51C19.285,20.513 19.585,21.49 20.128,22.333C20.706,23.287 21.52,24.074 22.493,24.62C23.438,25.167 24.194,25.296 24.759,25.008C25.323,24.718 25.607,24.09 25.607,23.117C25.605,22.333 25.416,21.561 25.056,20.864C24.69,20.14 24.214,19.477 23.644,18.899C23.128,18.361 22.541,17.896 21.898,17.517L21.898,16.403C22.397,16.713 22.961,16.901 23.546,16.953C23.767,16.977 23.989,16.952 24.199,16.88C24.408,16.808 24.599,16.692 24.759,16.538C24.922,16.351 25.045,16.134 25.123,15.9C25.201,15.665 25.231,15.417 25.211,15.17C25.196,14.282 24.964,13.412 24.536,12.634C24.095,11.783 23.417,11.079 22.584,10.607C21.767,10.134 21.101,10.04 20.581,10.317C20.061,10.594 19.804,11.171 19.804,12.053L18.757,11.448C18.713,10.778 18.882,10.111 19.24,9.543C19.395,9.33 19.598,9.156 19.833,9.035C20.068,8.914 20.327,8.85 20.591,8.848C21.296,8.859 21.983,9.07 22.574,9.456C23.355,9.903 24.043,10.497 24.6,11.205C25.144,11.887 25.578,12.651 25.883,13.468C26.165,14.201 26.315,14.979 26.326,15.764C26.326,16.643 26.073,17.263 25.566,17.625C25.279,17.81 24.955,17.931 24.617,17.979C24.279,18.026 23.934,18 23.607,17.902C24.487,18.666 25.232,19.571 25.813,20.58C26.408,21.582 26.722,22.725 26.721,23.89C26.721,24.773 26.54,25.431 26.177,25.866C25.997,26.082 25.769,26.254 25.511,26.367C25.253,26.481 24.973,26.534 24.691,26.521C23.903,26.48 23.139,26.233 22.476,25.805Z" fill="#31A062"/>
</g>
<g opacity="0.2">
<path d="M28.646,21.172C28.604,19.863 28.805,18.557 29.237,17.321C29.632,16.308 30.19,15.667 30.926,15.366C31.662,15.065 32.496,15.19 33.469,15.751C34.512,16.381 35.385,17.257 36.012,18.301C36.769,19.506 37.339,20.819 37.701,22.195C38.099,23.671 38.299,25.195 38.295,26.724C38.335,28.028 38.133,29.329 37.701,30.561C37.309,31.574 36.748,32.229 36.012,32.53C35.276,32.83 34.442,32.705 33.469,32.145C32.426,31.514 31.553,30.639 30.926,29.595C30.169,28.386 29.599,27.07 29.237,25.69C28.842,24.217 28.643,22.697 28.646,21.172L28.646,21.172ZM29.73,21.796C29.726,23.078 29.875,24.356 30.173,25.603C30.434,26.751 30.867,27.853 31.456,28.872C31.928,29.731 32.618,30.45 33.456,30.959C34.232,31.408 34.898,31.483 35.458,31.182C36.019,30.881 36.444,30.287 36.738,29.395C37.059,28.327 37.209,27.214 37.181,26.099C37.186,24.813 37.037,23.53 36.738,22.279C36.476,21.136 36.045,20.039 35.458,19.024C34.984,18.165 34.293,17.446 33.456,16.936C32.679,16.486 32.012,16.412 31.456,16.713C30.895,17.014 30.47,17.605 30.173,18.49C29.85,19.562 29.701,20.678 29.73,21.796L29.73,21.796Z" fill="#31A062"/>
</g>
<g opacity="0.2">
<path d="M49.228,35.785C49.228,36.983 49.017,37.868 48.596,38.44C48.407,38.711 48.154,38.931 47.86,39.081C47.565,39.231 47.238,39.305 46.907,39.298C46.067,39.264 45.251,39.006 44.543,38.551C43.396,37.91 42.411,37.014 41.662,35.934C40.944,34.888 40.368,33.753 39.947,32.557L40.875,32.384C41.214,33.402 41.695,34.366 42.304,35.248C42.879,36.117 43.645,36.844 44.543,37.373C45.606,37.987 46.463,38.1 47.113,37.71C47.765,37.325 48.089,36.468 48.089,35.13C48.088,34.322 47.938,33.52 47.647,32.766C47.358,32.002 46.953,31.288 46.445,30.648C45.979,30.049 45.407,29.542 44.756,29.152C44.164,28.778 43.498,28.538 42.804,28.446C42.187,28.413 41.574,28.551 41.031,28.845L42.844,21.415L49.349,25.17L49.349,26.285L43.672,23.009L42.507,27.71C42.916,27.619 43.34,27.619 43.75,27.71C44.257,27.819 44.743,28.011 45.188,28.277C45.991,28.753 46.692,29.382 47.252,30.128C47.87,30.934 48.358,31.83 48.701,32.786C49.05,33.748 49.228,34.763 49.228,35.785L49.228,35.785Z" fill="#31A062"/>
</g>
<g opacity="0.2">
<path d="M62.359,39.862C62.962,40.35 63.505,40.907 63.976,41.523C64.458,42.142 64.852,42.824 65.148,43.55C65.443,44.275 65.593,45.05 65.591,45.833C65.591,46.88 65.394,47.631 65,48.085C64.8,48.312 64.547,48.485 64.263,48.587C63.979,48.69 63.674,48.72 63.375,48.673C62.535,48.553 61.729,48.256 61.011,47.802L57.816,45.958L57.816,30.037L60.815,31.766C61.986,32.422 62.991,33.337 63.753,34.441C64.463,35.468 64.841,36.688 64.838,37.937C64.838,38.837 64.612,39.437 64.162,39.737C63.706,40.037 63.108,40.081 62.359,39.862ZM58.887,37.312L60.802,38.416C61.617,38.887 62.31,39.062 62.882,38.943C63.454,38.824 63.74,38.302 63.74,37.379C63.733,36.477 63.454,35.598 62.94,34.857C62.391,34.04 61.659,33.364 60.802,32.881L58.887,31.78L58.887,37.312ZM58.887,38.426L58.887,45.485L60.998,46.701C62.051,47.309 62.896,47.497 63.531,47.265C64.169,47.035 64.486,46.326 64.486,45.144C64.487,44.394 64.322,43.654 64.003,42.976C63.681,42.27 63.249,41.62 62.723,41.051C62.224,40.496 61.642,40.022 60.998,39.646L58.887,38.426Z" fill="#31A062"/>
</g>
<g opacity="0.2">
<path d="M66.32,36.136L66.32,34.954L74.662,39.77L74.662,40.946L71.032,38.852L71.032,53.611L69.948,52.986L69.948,38.244L66.32,36.136Z" fill="#31A062"/>
</g>
<g opacity="0.2">
<path d="M75.983,48.501C75.987,49.875 76.241,51.237 76.733,52.52C77.218,53.817 77.901,55.03 78.759,56.117C79.529,57.125 80.486,57.975 81.579,58.619C82.348,59.114 83.223,59.421 84.132,59.514C84.8,59.566 85.465,59.383 86.013,58.998L86.013,60.686C85.419,60.947 84.763,61.031 84.122,60.926C83.22,60.746 82.358,60.403 81.579,59.913C80.59,59.336 79.693,58.614 78.918,57.772C78.089,56.884 77.371,55.899 76.776,54.84C76.166,53.761 75.686,52.612 75.348,51.419C75.012,50.257 74.839,49.055 74.835,47.846C74.805,46.827 74.98,45.813 75.348,44.864C75.625,44.137 76.125,43.518 76.776,43.094C77.42,42.709 78.173,42.547 78.918,42.631C79.863,42.743 80.772,43.062 81.579,43.567C82.508,44.088 83.364,44.73 84.122,45.478C84.841,46.213 85.476,47.027 86.013,47.903L86.013,49.565C85.508,48.592 84.875,47.69 84.132,46.883C83.389,46.082 82.528,45.399 81.579,44.857C80.552,44.267 79.616,44.018 78.769,44.11C78.357,44.151 77.961,44.286 77.609,44.504C77.258,44.723 76.961,45.019 76.743,45.37C76.236,46.091 75.983,47.134 75.983,48.501Z" fill="#31A062"/>
</g>
</g>
</svg>
