<svg width="38" height="44" viewBox="0 0 38 44" fill="none" xmlns="http://www.w3.org/2000/svg" xmlns:xlink="http://www.w3.org/1999/xlink">
<path d="M1.002,25.574L2.501,25.606C2.502,25.596 2.502,25.585 2.502,25.574L1.002,25.574ZM1.002,25.136L-0.497,25.062C-0.498,25.087 -0.498,25.111 -0.498,25.136L1.002,25.136ZM2.205,21.499L1.103,20.482C1.049,20.54 1,20.602 0.956,20.667L2.205,21.499ZM4.591,16.872L6.06,17.177C6.081,17.077 6.091,16.974 6.091,16.872L4.591,16.872ZM4.708,12.854L3.214,12.714L3.214,12.724L4.708,12.854ZM31.311,12.854L32.805,12.724L32.804,12.71L31.311,12.854ZM31.408,16.872L29.912,16.981C29.917,17.048 29.926,17.114 29.94,17.18L31.408,16.872ZM33.795,21.518L35.037,20.677C34.996,20.617 34.951,20.56 34.902,20.507L33.795,21.518ZM34.998,25.136L36.498,25.136C36.498,25.114 36.497,25.091 36.496,25.069L34.998,25.136ZM34.998,25.555L33.498,25.555C33.498,25.568 33.498,25.58 33.498,25.593L34.998,25.555ZM33.31,30.335L34.395,31.37C34.416,31.348 34.436,31.325 34.456,31.302L33.31,30.335ZM27.605,33.077L27.469,31.583L27.445,31.585L27.605,33.077ZM8.375,33.077L8.535,31.585L8.517,31.584L8.375,33.077ZM2.67,30.335L1.516,31.293C1.54,31.321 1.564,31.348 1.589,31.375L2.67,30.335ZM2.502,25.574L2.502,25.136L-0.498,25.136L-0.498,25.574L2.502,25.574ZM2.5,25.211C2.551,24.187 2.879,23.193 3.453,22.331L0.956,20.667C0.084,21.977 -0.419,23.494 -0.497,25.062L2.5,25.211ZM3.307,22.517C4.694,21.014 5.646,19.17 6.06,17.177L3.123,16.567C2.82,18.023 2.124,19.376 1.103,20.482L3.307,22.517ZM6.091,16.872C6.091,15.528 6.092,14.241 6.202,12.985L3.214,12.724C3.09,14.133 3.091,15.55 3.091,16.872L6.091,16.872ZM6.201,12.994C6.712,7.541 12.217,3.5 17.922,3.5L17.922,0.5C11.092,0.5 3.906,5.332 3.214,12.714L6.201,12.994ZM17.922,3.5L18.077,3.5L18.077,0.5L17.922,0.5L17.922,3.5ZM18.077,3.5C23.781,3.5 29.29,7.541 29.818,12.999L32.804,12.71C32.09,5.332 24.909,0.5 18.077,0.5L18.077,3.5ZM29.817,12.985C29.868,13.574 29.869,14.18 29.867,14.858C29.864,15.514 29.859,16.246 29.912,16.981L32.904,16.763C32.861,16.165 32.864,15.555 32.867,14.868C32.869,14.203 32.87,13.467 32.805,12.724L29.817,12.985ZM29.94,17.18C30.358,19.173 31.307,21.019 32.687,22.53L34.902,20.507C33.881,19.389 33.183,18.028 32.876,16.564L29.94,17.18ZM32.553,22.359C33.127,23.208 33.454,24.191 33.499,25.204L36.496,25.069C36.426,23.499 35.92,21.981 35.037,20.677L32.553,22.359ZM33.498,25.136L33.498,25.555L36.498,25.555L36.498,25.136L33.498,25.136ZM33.498,25.593C33.532,26.963 33.061,28.304 32.163,29.367L34.456,31.302C35.823,29.683 36.55,27.629 36.497,25.518L33.498,25.593ZM32.224,29.299C30.982,30.602 29.291,31.417 27.469,31.583L27.741,34.571C30.278,34.34 32.646,33.204 34.395,31.37L32.224,29.299ZM27.445,31.585C21.16,32.26 14.82,32.26 8.535,31.585L8.215,34.568C14.712,35.265 21.268,35.265 27.765,34.568L27.445,31.585ZM8.517,31.584C6.694,31.41 5.001,30.595 3.752,29.295L1.589,31.375C3.342,33.197 5.703,34.33 8.233,34.57L8.517,31.584ZM3.824,29.377C2.939,28.31 2.472,26.973 2.501,25.606L-0.498,25.542C-0.543,27.637 0.173,29.675 1.516,31.293L3.824,29.377Z" fill="#000000"/>
<path d="M14.283,38.769C13.767,38.121 12.823,38.014 12.175,38.53C11.527,39.047 11.42,39.99 11.937,40.638L14.283,38.769ZM21.687,40.713L20.79,39.51L20.768,39.527L21.687,40.713ZM23.903,40.644C24.422,39.998 24.32,39.054 23.675,38.535C23.029,38.016 22.085,38.118 21.566,38.763L23.903,40.644ZM11.937,40.638C13.185,42.205 15.012,43.212 17.009,43.447L17.36,40.468C16.138,40.324 15.032,39.709 14.283,38.769L11.937,40.638ZM17.009,43.447C19.006,43.682 21.02,43.127 22.605,41.898L20.768,39.527C19.809,40.271 18.582,40.612 17.36,40.468L17.009,43.447ZM22.583,41.915C23.075,41.548 23.519,41.121 23.903,40.644L21.566,38.763C21.341,39.043 21.08,39.294 20.79,39.51L22.583,41.915Z" fill="#000000"/>
</svg>
