<svg width="40" height="40" viewBox="0 0 40 40" fill="none" xmlns="http://www.w3.org/2000/svg" xmlns:xlink="http://www.w3.org/1999/xlink">
<g opacity="0.8">
<path d="M17.533,35.51C27.462,35.51 35.51,27.462 35.51,17.533C35.51,7.605 27.462,-0.444 17.533,-0.444C7.605,-0.444 -0.444,7.605 -0.444,17.533C-0.444,27.462 7.605,35.51 17.533,35.51Z" stroke="#000000" stroke-width="2" stroke-miterlimit="3.999327" stroke-linecap="round" stroke-linejoin="round"/>
</g>
<g opacity="0.8">
<path d="M31.449,29.554C30.667,28.774 29.401,28.776 28.621,29.558C27.841,30.34 27.842,31.606 28.624,32.386L31.449,29.554ZM35.672,39.416C36.454,40.196 37.721,40.195 38.501,39.412C39.281,38.63 39.279,37.364 38.497,36.584L35.672,39.416ZM28.624,32.386L35.672,39.416L38.497,36.584L31.449,29.554L28.624,32.386Z" fill="#000000"/>
</g>
</svg>
