<svg width="50" height="50" viewBox="0 0 50 50" fill="none" xmlns="http://www.w3.org/2000/svg" xmlns:xlink="http://www.w3.org/1999/xlink">
<g opacity="0.5">
<path d="M40.971,7.029L40.263,7.737L40.263,7.737L40.971,7.029ZM24,46.08L24,47.08L24.001,47.08L24,46.08ZM46.08,24L47.08,24.001L47.08,24L46.08,24ZM10.957,30.72L10.957,29.72L8.543,29.72L10.25,31.427L10.957,30.72ZM15.079,34.841L14.372,35.549L14.384,35.561L15.079,34.841ZM14.655,36.461L14.908,37.428L14.908,37.428L14.655,36.461ZM13.721,36.199L14.441,35.504L14.428,35.492L13.721,36.199ZM7.961,30.439L7.254,31.146L7.254,31.146L7.961,30.439ZM7.961,29.081L7.254,28.374L7.254,28.374L7.961,29.081ZM13.721,23.321L13.026,22.602L13.014,22.614L13.721,23.321ZM15.067,23.333L15.774,22.626L15.774,22.626L15.067,23.333ZM15.079,24.679L15.786,25.386L15.798,25.373L15.079,24.679ZM10.957,28.8L10.25,28.093L8.543,29.8L10.957,29.8L10.957,28.8ZM40.32,18.24L39.32,18.239L39.32,18.241L40.32,18.24ZM40.039,18.919L39.333,18.211L39.332,18.212L40.039,18.919ZM40.039,17.561L39.332,18.268L39.333,18.269L40.039,17.561ZM34.279,11.801L34.986,11.094L34.973,11.082L34.279,11.801ZM32.933,11.813L32.226,11.106L32.226,11.106L32.933,11.813ZM32.921,13.159L32.202,13.854L32.214,13.866L32.921,13.159ZM37.043,17.28L37.043,18.28L39.457,18.28L37.75,16.573L37.043,17.28ZM37.043,19.2L37.75,19.907L39.457,18.2L37.043,18.2L37.043,19.2ZM32.921,23.321L32.214,22.614L32.202,22.627L32.921,23.321ZM34.279,24.679L34.974,25.398L34.986,25.386L34.279,24.679ZM24,-1C10.193,-1 -1,10.193 -1,24L1,24C1,11.297 11.297,1 24,1L24,-1ZM41.678,6.322C36.989,1.634 30.63,-1 24,-1L24,1C30.1,1 35.95,3.423 40.263,7.737L41.678,6.322ZM49,24C49,17.37 46.366,11.011 41.678,6.322L40.263,7.737C44.577,12.05 47,17.9 47,24L49,24ZM24,49C37.807,49 49,37.807 49,24L47,24C47,36.703 36.703,47 24,47L24,49ZM-1,24C-1,37.807 10.193,49 24,49L24,47C11.297,47 1,36.703 1,24L-1,24ZM24,45.08C12.358,45.08 2.92,35.642 2.92,24L0.92,24C0.92,36.747 11.253,47.08 24,47.08L24,45.08ZM45.08,23.999C45.067,35.636 35.636,45.067 23.999,45.08L24.001,47.08C36.741,47.066 47.066,36.741 47.08,24.001L45.08,23.999ZM24,2.92C35.642,2.92 45.08,12.358 45.08,24L47.08,24C47.08,11.253 36.747,0.92 24,0.92L24,2.92ZM2.92,24C2.92,12.358 12.358,2.92 24,2.92L24,0.92C11.253,0.92 0.92,11.253 0.92,24L2.92,24ZM29.76,31.72C30.842,31.72 31.72,30.842 31.72,29.76L29.72,29.76C29.72,29.738 29.738,29.72 29.76,29.72L29.76,31.72ZM10.957,31.72L29.76,31.72L29.76,29.72L10.957,29.72L10.957,31.72ZM15.786,34.134L11.665,30.013L10.25,31.427L14.372,35.548L15.786,34.134ZM16.308,36.028C16.487,35.343 16.283,34.614 15.773,34.122L14.384,35.561C14.374,35.551 14.369,35.536 14.373,35.522L16.308,36.028ZM14.908,37.428C15.593,37.249 16.129,36.713 16.308,36.028L14.373,35.522C14.377,35.508 14.388,35.497 14.402,35.493L14.908,37.428ZM13.002,36.893C13.494,37.403 14.223,37.607 14.908,37.428L14.402,35.493C14.416,35.489 14.431,35.494 14.441,35.504L13.002,36.893ZM7.254,31.146L13.014,36.906L14.428,35.492L8.668,29.732L7.254,31.146ZM7.254,28.374C6.489,29.14 6.489,30.38 7.254,31.146L8.669,29.732C8.684,29.747 8.684,29.773 8.669,29.788L7.254,28.374ZM13.014,22.614L7.254,28.374L8.668,29.788L14.428,24.028L13.014,22.614ZM15.774,22.626C15.018,21.87 13.796,21.859 13.027,22.602L14.416,24.041C14.4,24.056 14.375,24.056 14.36,24.04L15.774,22.626ZM15.798,25.373C16.541,24.604 16.53,23.382 15.774,22.626L14.36,24.04C14.344,24.025 14.344,24 14.359,23.984L15.798,25.373ZM11.665,29.507L15.786,25.386L14.372,23.972L10.25,28.093L11.665,29.507ZM29.76,27.8L10.957,27.8L10.957,29.8L29.76,29.8L29.76,27.8ZM31.72,29.76C31.72,28.678 30.842,27.8 29.76,27.8L29.76,29.8C29.738,29.8 29.72,29.782 29.72,29.76L31.72,29.76ZM39.32,18.241C39.32,18.23 39.325,18.219 39.333,18.211L40.745,19.627C41.114,19.259 41.321,18.76 41.32,18.239L39.32,18.241ZM39.333,18.269C39.325,18.261 39.32,18.25 39.32,18.239L41.32,18.241C41.321,17.72 41.114,17.221 40.745,16.853L39.333,18.269ZM33.572,12.508L39.332,18.268L40.746,16.854L34.986,11.094L33.572,12.508ZM33.64,12.52C33.625,12.536 33.6,12.536 33.584,12.521L34.973,11.082C34.204,10.339 32.982,10.35 32.226,11.106L33.64,12.52ZM33.641,12.464C33.656,12.48 33.656,12.505 33.64,12.52L32.226,11.106C31.47,11.862 31.459,13.084 32.202,13.853L33.641,12.464ZM37.75,16.573L33.628,12.452L32.214,13.866L36.335,17.987L37.75,16.573ZM18.24,18.28L37.043,18.28L37.043,16.28L18.24,16.28L18.24,18.28ZM18.28,18.24C18.28,18.262 18.262,18.28 18.24,18.28L18.24,16.28C17.158,16.28 16.28,17.158 16.28,18.24L18.28,18.24ZM18.24,18.2C18.262,18.2 18.28,18.218 18.28,18.24L16.28,18.24C16.28,19.322 17.158,20.2 18.24,20.2L18.24,18.2ZM37.043,18.2L18.24,18.2L18.24,20.2L37.043,20.2L37.043,18.2ZM33.628,24.028L37.75,19.907L36.335,18.493L32.214,22.614L33.628,24.028ZM33.64,23.96C33.656,23.975 33.656,24 33.641,24.016L32.202,22.627C31.459,23.396 31.47,24.618 32.226,25.374L33.64,23.96ZM33.584,23.959C33.6,23.944 33.625,23.944 33.64,23.96L32.226,25.374C32.982,26.13 34.204,26.141 34.973,25.398L33.584,23.959ZM39.332,18.212L33.572,23.972L34.986,25.386L40.746,19.626L39.332,18.212Z" fill="#000000"/>
</g>
</svg>
