<svg width="2" height="136" viewBox="0 0 2 136" fill="none" xmlns="http://www.w3.org/2000/svg" xmlns:xlink="http://www.w3.org/1999/xlink">
<g opacity="0.94">
<path d="M1.084,135.674L-0.267,135.674L-0.267,131.564L1.084,131.564L1.084,135.674ZM1.084,127.454L-0.267,127.454L-0.267,123.34L1.084,123.34L1.084,127.454ZM1.084,119.23L-0.267,119.23L-0.267,115.12L1.084,115.12L1.084,119.23ZM1.084,111.009L-0.267,111.009L-0.267,106.909L1.084,106.909L1.084,111.009ZM1.084,102.786L-0.267,102.786L-0.267,98.675L1.084,98.675L1.084,102.786ZM1.084,94.565L-0.267,94.565L-0.267,90.455L1.084,90.455L1.084,94.565ZM1.084,86.341L-0.267,86.341L-0.267,82.231L1.084,82.231L1.084,86.341ZM1.084,78.121L-0.267,78.121L-0.267,74.011L1.084,74.011L1.084,78.121ZM1.084,69.901L-0.267,69.901L-0.267,65.787L1.084,65.787L1.084,69.901ZM1.084,61.677L-0.267,61.677L-0.267,57.567L1.084,57.567L1.084,61.677ZM1.084,53.456L-0.267,53.456L-0.267,49.346L1.084,49.346L1.084,53.456ZM1.084,45.233L-0.267,45.233L-0.267,41.122L1.084,41.122L1.084,45.233ZM1.084,37.012L-0.267,37.012L-0.267,32.902L1.084,32.902L1.084,37.012ZM1.084,28.792L-0.267,28.792L-0.267,24.678L1.084,24.678L1.084,28.792ZM1.084,20.568L-0.267,20.568L-0.267,16.458L1.084,16.458L1.084,20.568ZM1.084,12.347L-0.267,12.347L-0.267,8.234L1.084,8.234L1.084,12.347ZM1.084,4.124L-0.267,4.124L-0.267,0.013L1.084,0.013L1.084,4.124Z" fill="#31A062"/>
</g>
</svg>
