<svg width="2" height="136" viewBox="0 0 2 136" fill="none" xmlns="http://www.w3.org/2000/svg" xmlns:xlink="http://www.w3.org/1999/xlink">
<g opacity="0.94">
<path d="M0.426,135.331L-0.925,135.331L-0.925,131.231L0.426,131.231L0.426,135.331ZM0.426,127.107L-0.925,127.107L-0.925,122.997L0.426,122.997L0.426,127.107ZM0.426,118.887L-0.925,118.887L-0.925,114.776L0.426,114.776L0.426,118.887ZM0.426,110.666L-0.925,110.666L-0.925,106.553L0.426,106.553L0.426,110.666ZM0.426,102.442L-0.925,102.442L-0.925,98.332L0.426,98.332L0.426,102.442ZM0.426,94.222L-0.925,94.222L-0.925,90.112L0.426,90.112L0.426,94.222ZM0.426,85.998L-0.925,85.998L-0.925,81.888L0.426,81.888L0.426,85.998ZM0.426,77.778L-0.925,77.778L-0.925,73.668L0.426,73.668L0.426,77.778ZM0.426,69.557L-0.925,69.557L-0.925,65.444L0.426,65.444L0.426,69.557ZM0.426,61.334L-0.925,61.334L-0.925,57.223L0.426,57.223L0.426,61.334ZM0.426,53.113L-0.925,53.113L-0.925,49L0.426,49L0.426,53.113ZM0.426,44.889L-0.925,44.889L-0.925,40.779L0.426,40.779L0.426,44.889ZM0.426,36.669L-0.925,36.669L-0.925,32.559L0.426,32.559L0.426,36.669ZM0.426,28.445L-0.925,28.445L-0.925,24.335L0.426,24.335L0.426,28.445ZM0.426,20.225L-0.925,20.225L-0.925,16.114L0.426,16.114L0.426,20.225ZM0.426,12.004L-0.925,12.004L-0.925,7.891L0.426,7.891L0.426,12.004ZM0.426,3.78L-0.925,3.78L-0.925,-0.33L0.426,-0.33L0.426,3.78Z" fill="#31A062"/>
</g>
</svg>
