<svg width="2" height="136" viewBox="0 0 2 136" fill="none" xmlns="http://www.w3.org/2000/svg" xmlns:xlink="http://www.w3.org/1999/xlink">
<g opacity="0.94">
<path d="M1.501,134.995L0.15,134.995L0.15,130.885L1.501,130.885L1.501,134.995ZM1.501,126.771L0.15,126.771L0.15,122.661L1.501,122.661L1.501,126.771ZM1.501,118.551L0.15,118.551L0.15,114.441L1.501,114.441L1.501,118.551ZM1.501,110.327L0.15,110.327L0.15,106.217L1.501,106.217L1.501,110.327ZM1.501,102.107L0.15,102.107L0.15,97.996L1.501,97.996L1.501,102.107ZM1.501,93.886L0.15,93.886L0.15,89.773L1.501,89.773L1.501,93.886ZM1.501,85.662L0.15,85.662L0.15,81.552L1.501,81.552L1.501,85.662ZM1.501,77.442L0.15,77.442L0.15,73.332L1.501,73.332L1.501,77.442ZM1.501,69.218L0.15,69.218L0.15,65.108L1.501,65.108L1.501,69.218ZM1.501,60.998L0.15,60.998L0.15,56.888L1.501,56.888L1.501,60.998ZM1.501,52.777L0.15,52.777L0.15,48.664L1.501,48.664L1.501,52.777ZM1.501,44.554L0.15,44.554L0.15,40.443L1.501,40.443L1.501,44.554ZM1.501,36.333L0.15,36.333L0.15,32.223L1.501,32.223L1.501,36.333ZM1.501,28.109L0.15,28.109L0.15,23.999L1.501,23.999L1.501,28.109ZM1.501,19.889L0.15,19.889L0.15,15.779L1.501,15.779L1.501,19.889ZM1.501,11.665L0.15,11.665L0.15,7.555L1.501,7.555L1.501,11.665ZM1.501,3.445L0.15,3.445L0.15,-0.666L1.501,-0.666L1.501,3.445Z" fill="#31A062"/>
</g>
</svg>
