<svg width="2" height="136" viewBox="0 0 2 136" fill="none" xmlns="http://www.w3.org/2000/svg" xmlns:xlink="http://www.w3.org/1999/xlink">
<g opacity="0.94">
<path d="M0.351,134.991L-1,134.991L-1,130.881L0.351,130.881L0.351,134.991ZM0.351,126.771L-1,126.771L-1,122.661L0.351,122.661L0.351,126.771ZM0.351,118.547L-1,118.547L-1,114.437L0.351,114.437L0.351,118.547ZM0.351,110.327L-1,110.327L-1,106.216L0.351,106.216L0.351,110.327ZM0.351,102.106L-1,102.106L-1,97.993L0.351,97.993L0.351,102.106ZM0.351,93.882L-1,93.882L-1,89.759L0.351,89.759L0.351,93.882ZM0.351,85.662L-1,85.662L-1,81.552L0.351,81.552L0.351,85.662ZM0.351,77.438L-1,77.438L-1,73.328L0.351,73.328L0.351,77.438ZM0.351,69.218L-1,69.218L-1,65.104L0.351,65.104L0.351,69.218ZM0.351,60.997L-1,60.997L-1,56.884L0.351,56.884L0.351,60.997ZM0.351,52.774L-1,52.774L-1,48.663L0.351,48.663L0.351,52.774ZM0.351,44.553L-1,44.553L-1,40.45L0.351,40.45L0.351,44.553ZM0.351,36.329L-1,36.329L-1,32.219L0.351,32.219L0.351,36.329ZM0.351,28.109L-1,28.109L-1,23.999L0.351,23.999L0.351,28.109ZM0.351,19.885L-1,19.885L-1,15.775L0.351,15.775L0.351,19.885ZM0.351,11.665L-1,11.665L-1,7.554L0.351,7.554L0.351,11.665ZM0.351,3.444L-1,3.444L-1,-0.669L0.351,-0.669L0.351,3.444Z" fill="#31A062"/>
</g>
</svg>
