<svg width="32" height="40" viewBox="0 0 32 40" fill="none" xmlns="http://www.w3.org/2000/svg" xmlns:xlink="http://www.w3.org/1999/xlink">
<path d="M11.697,27.1C14.576,26.868 17.469,26.868 20.348,27.1C21.916,27.191 23.477,27.387 25.02,27.687C28.359,28.363 30.539,29.466 31.474,31.246C32.175,32.634 32.175,34.287 31.474,35.676C30.539,37.456 28.446,38.63 24.985,39.235C23.443,39.546 21.882,39.748 20.314,39.84C18.86,40 17.407,40 15.936,40L13.289,40C12.735,39.929 12.199,39.893 11.68,39.893C10.111,39.813 8.55,39.616 7.008,39.306C3.669,38.665 1.488,37.527 0.554,35.747C0.193,35.058 0.003,34.288 0,33.505C-0.007,32.718 0.177,31.941 0.537,31.246C1.454,29.466 3.634,28.31 7.008,27.687C8.556,27.383 10.123,27.187 11.697,27.1ZM16.005,0C21.806,0 26.508,4.836 26.508,10.801C26.508,16.766 21.806,21.601 16.005,21.601C10.205,21.601 5.503,16.766 5.503,10.801C5.503,4.836 10.205,0 16.005,0Z" stroke="#000000" stroke-width="2" stroke-miterlimit="3.999327"/>
</svg>
