<svg width="2" height="136" viewBox="0 0 2 136" fill="none" xmlns="http://www.w3.org/2000/svg" xmlns:xlink="http://www.w3.org/1999/xlink">
<g opacity="0.94">
<path d="M0.628,135.527L-0.723,135.527L-0.723,131.417L0.628,131.417L0.628,135.527ZM0.628,127.307L-0.723,127.307L-0.723,123.193L0.628,123.193L0.628,127.307ZM0.628,119.083L-0.723,119.083L-0.723,114.973L0.628,114.973L0.628,119.083ZM0.628,110.863L-0.723,110.863L-0.723,106.752L0.628,106.752L0.628,110.863ZM0.628,102.639L-0.723,102.639L-0.723,98.529L0.628,98.529L0.628,102.639ZM0.628,94.418L-0.723,94.418L-0.723,90.308L0.628,90.308L0.628,94.418ZM0.628,86.198L-0.723,86.198L-0.723,82.081L0.628,82.081L0.628,86.198ZM0.628,77.974L-0.723,77.974L-0.723,73.864L0.628,73.864L0.628,77.974ZM0.628,69.754L-0.723,69.754L-0.723,65.644L0.628,65.644L0.628,69.754ZM0.628,61.53L-0.723,61.53L-0.723,57.426L0.628,57.426L0.628,61.53ZM0.628,53.31L-0.723,53.31L-0.723,49.199L0.628,49.199L0.628,53.31ZM0.628,45.089L-0.723,45.089L-0.723,40.975L0.628,40.975L0.628,45.089ZM0.628,36.865L-0.723,36.865L-0.723,32.772L0.628,32.772L0.628,36.865ZM0.628,28.645L-0.723,28.645L-0.723,24.531L0.628,24.531L0.628,28.645ZM0.628,20.421L-0.723,20.421L-0.723,16.311L0.628,16.311L0.628,20.421ZM0.628,12.201L-0.723,12.201L-0.723,8.09L0.628,8.09L0.628,12.201ZM0.628,3.977L-0.723,3.977L-0.723,-0.133L0.628,-0.133L0.628,3.977Z" fill="#31A062"/>
</g>
</svg>
